<svg xmlns="http://www.w3.org/2000/svg" viewBox="0 0 114.67 128.16"><defs><style>.cls-1{opacity:0.5;}.cls-2{font-size:26.24px;font-family:Bodoni-Book, Bodoni;}.cls-2,.cls-3{fill:#fff;}</style></defs><title>vodkalogo</title><g id="Layer_2" data-name="Layer 2"><g id="Layer_1-2" data-name="Layer 1"><g class="cls-1"><text class="cls-2" transform="translate(13.58 121.6)">VODKA</text><path class="cls-3" d="M57.34,86.83,0,29.5,29.5,0H85.16l29.51,29.5ZM8,29.5,57.34,78.83,106.68,29.5,82.81,5.66h-51Z"/><path class="cls-3" d="M66.36,33.31v1.8H60V62.53h6.35v1.81H47.87V62.53h6V35.11h-6v-1.8h6V29.47c0-13.4,5.57-19,13.09-19,3.05,0,6.58,1.41,6.58,5.1a2.83,2.83,0,0,1-2.9,2.58c-2.11,0-3.21-1.49-3.21-3.6,0-.87.62-.94.62-2,0-.39-1.33-.47-1.88-.47-3.76,0-6.19,4.54-6.19,12.38v8.85Z"/><path class="cls-3" d="M79.71,34.09a2.84,2.84,0,1,1-2.84-2.83,2.84,2.84,0,0,1,2.84,2.83"/></g></g></g></svg>